<svg xmlns="http://www.w3.org/2000/svg" viewBox="0 0 671.36 88.26" role="img" aria-label="agent race control">
<!-- "agent race control" in Orbitron 700 (SIL OFL), outlined to paths by scripts in the repo history -->
<g fill="#e6edf3">
<path transform="translate(4.00 68.70) scale(0.064 -0.064)" d="M190 0Q152 0 120.5 19Q89 38 70.5 69Q52 100 52 138L52 356L510 356L510 437Q510 442 506.5 445.5Q503 449 498 449L52 449L52 580L503 580Q541 580 572.5 561Q604 542 622.5 511Q641 480 641 442L641 0ZM195 131L510 131L510 238L183 238L183 143Q183 138 186.5 134.5Q190 131 195 131Z"/>
<path transform="translate(47.97 68.70) scale(0.064 -0.064)" d="M138 -229L138 -229L138 -97L487 -97Q492 -97 495.5 -93.5Q499 -90 499 -85L499 0L179 0Q142 0 110.5 19Q79 38 60 69Q41 100 41 138L41 442Q41 480 60 511Q79 542 110.5 561Q142 580 179 580L493 580Q531 580 562 561Q593 542 611.5 511Q630 480 630 442L630 -91Q630 -130 612 -161Q594 -192 562.5 -210.5Q531 -229 493 -229ZM184 131L487 131Q492 131 495.5 134.5Q499 138 499 143L499 437Q499 442 495.5 445.5Q492 449 487 449L184 449Q179 449 175.5 445.5Q172 442 172 437L172 143Q172 138 175.5 134.5Q179 131 184 131Z"/>
<path transform="translate(90.34 68.70) scale(0.064 -0.064)" d="M189 0Q151 0 120 19Q89 38 70 69Q51 100 51 138L51 442Q51 480 70 511Q89 542 120 561Q151 580 189 580L502 580Q540 580 571.5 561Q603 542 621.5 511Q640 480 640 442L640 224L182 224L182 143Q182 138 185.5 134.5Q189 131 194 131L640 131L640 0L189 0ZM182 342L509 342L509 437Q509 442 505.5 445.5Q502 449 497 449L194 449Q189 449 185.5 445.5Q182 442 182 437Z"/>
<path transform="translate(134.62 68.70) scale(0.064 -0.064)" d="M54 0L54 0L54 580L505 580Q543 580 574.5 561Q606 542 624.5 511Q643 480 643 442L643 0L512 0L512 437Q512 442 508.5 445.5Q505 449 500 449L197 449Q192 449 188.5 445.5Q185 442 185 437L185 0Z"/>
<path transform="translate(179.17 68.70) scale(0.064 -0.064)" d="M191 0Q153 0 122 19Q91 38 72 69Q53 100 53 138L53 758L184 758L184 580L410 580L410 449L184 449L184 143Q184 138 187.5 134.5Q191 131 196 131L410 131L410 0L191 0Z"/>
<path transform="translate(226.78 68.70) scale(0.064 -0.064)" d="M52 0L52 0L52 442Q52 480 71 511Q90 542 121.5 561Q153 580 190 580L512 580L512 449L195 449Q190 449 186.5 445.5Q183 442 183 437L183 0Z"/>
<path transform="translate(261.09 68.70) scale(0.064 -0.064)" d="M190 0Q152 0 120.5 19Q89 38 70.5 69Q52 100 52 138L52 356L510 356L510 437Q510 442 506.5 445.5Q503 449 498 449L52 449L52 580L503 580Q541 580 572.5 561Q604 542 622.5 511Q641 480 641 442L641 0ZM195 131L510 131L510 238L183 238L183 143Q183 138 186.5 134.5Q190 131 195 131Z"/>
<path transform="translate(303.78 68.70) scale(0.064 -0.064)" d="M189 0Q151 0 120 19Q89 38 70 69Q51 100 51 138L51 442Q51 480 70 511Q89 542 120 561Q151 580 189 580L639 580L639 449L194 449Q189 449 185.5 445.5Q182 442 182 437L182 143Q182 138 185.5 134.5Q189 131 194 131L640 131L640 0L189 0Z"/>
<path transform="translate(346.66 68.70) scale(0.064 -0.064)" d="M189 0Q151 0 120 19Q89 38 70 69Q51 100 51 138L51 442Q51 480 70 511Q89 542 120 561Q151 580 189 580L502 580Q540 580 571.5 561Q603 542 621.5 511Q640 480 640 442L640 224L182 224L182 143Q182 138 185.5 134.5Q189 131 194 131L640 131L640 0L189 0ZM182 342L509 342L509 437Q509 442 505.5 445.5Q502 449 497 449L194 449Q189 449 185.5 445.5Q182 442 182 437Z"/>
<path transform="translate(410.53 68.70) scale(0.064 -0.064)" d="M189 0Q151 0 120 19Q89 38 70 69Q51 100 51 138L51 442Q51 480 70 511Q89 542 120 561Q151 580 189 580L639 580L639 449L194 449Q189 449 185.5 445.5Q182 442 182 437L182 143Q182 138 185.5 134.5Q189 131 194 131L640 131L640 0L189 0Z"/>
<path transform="translate(454.56 68.70) scale(0.064 -0.064)" d="M189 0Q151 0 120 19Q89 38 70 69Q51 100 51 138L51 442Q51 480 70 511Q89 542 120 561Q151 580 189 580L502 580Q540 580 571.5 561Q603 542 621.5 511Q640 480 640 442L640 138Q640 100 621.5 69Q603 38 572 19Q541 0 502 0L189 0ZM194 131L497 131Q502 131 505.5 134.5Q509 138 509 143L509 437Q509 442 505.5 445.5Q502 449 497 449L194 449Q189 449 185.5 445.5Q182 442 182 437L182 143Q182 138 185.5 134.5Q189 131 194 131Z"/>
<path transform="translate(497.25 68.70) scale(0.064 -0.064)" d="M54 0L54 0L54 580L505 580Q543 580 574.5 561Q606 542 624.5 511Q643 480 643 442L643 0L512 0L512 437Q512 442 508.5 445.5Q505 449 500 449L197 449Q192 449 188.5 445.5Q185 442 185 437L185 0Z"/>
<path transform="translate(541.79 68.70) scale(0.064 -0.064)" d="M191 0Q153 0 122 19Q91 38 72 69Q53 100 53 138L53 758L184 758L184 580L410 580L410 449L184 449L184 143Q184 138 187.5 134.5Q191 131 196 131L410 131L410 0L191 0Z"/>
<path transform="translate(570.27 68.70) scale(0.064 -0.064)" d="M52 0L52 0L52 442Q52 480 71 511Q90 542 121.5 561Q153 580 190 580L512 580L512 449L195 449Q190 449 186.5 445.5Q183 442 183 437L183 0Z"/>
<path transform="translate(603.81 68.70) scale(0.064 -0.064)" d="M189 0Q151 0 120 19Q89 38 70 69Q51 100 51 138L51 442Q51 480 70 511Q89 542 120 561Q151 580 189 580L502 580Q540 580 571.5 561Q603 542 621.5 511Q640 480 640 442L640 138Q640 100 621.5 69Q603 38 572 19Q541 0 502 0L189 0ZM194 131L497 131Q502 131 505.5 134.5Q509 138 509 143L509 437Q509 442 505.5 445.5Q502 449 497 449L194 449Q189 449 185.5 445.5Q182 442 182 437L182 143Q182 138 185.5 134.5Q189 131 194 131Z"/>
<path transform="translate(646.50 68.70) scale(0.064 -0.064)" d="M190 0Q152 0 121 19Q90 38 71 69Q52 100 52 138L52 771L184 771L184 143Q184 138 187.5 134.5Q191 131 196 131L307 131L307 0L190 0Z"/>
</g>
</svg>
